{
  "accessors": [
    {
      "bufferView": 2,
      "componentType": 5126,
      "count": 65532,
      "max": [
        3.9257519245147705,
        5.576023101806641,
        16.824180603027344
      ],
      "min": [
        -4.199336051940918,
        -3.5185279846191406,
        8.098121643066406
      ],
      "type": "VEC3"
    },
    {
      "bufferView": 2,
      "byteOffset": 786384,
      "componentType": 5126,
      "count": 65532,
      "max": [
        0.9999642968177795,
        0.9997124671936035,
        0.9999934434890747
      ],
      "min": [
        -0.9999998807907104,
        -0.9999861121177673,
        -0.9999724626541138
      ],
      "type": "VEC3"
    },
    {
      "bufferView": 1,
      "componentType": 5126,
      "count": 65532,
      "max": [
        0.9914180040359497,
        0.9958230257034302
      ],
      "min": [
        0.00254400004632771,
        0.0042039998807013035
      ],
      "type": "VEC2"
    },
    {
      "bufferView": 0,
      "componentType": 5125,
      "count": 339858,
      "type": "SCALAR"
    },
    {
      "bufferView": 2,
      "byteOffset": 1572768,
      "componentType": 5126,
      "count": 65533,
      "max": [
        3.9242160320281982,
        5.208162784576416,
        16.790210723876953
      ],
      "min": [
        -4.192306995391846,
        -3.949172019958496,
        8.64919376373291
      ],
      "type": "VEC3"
    },
    {
      "bufferView": 2,
      "byteOffset": 2359164,
      "componentType": 5126,
      "count": 65533,
      "max": [
        0.9999982714653015,
        0.9992945790290833,
        0.999996542930603
      ],
      "min": [
        -0.9999738931655884,
        -0.9999966025352478,
        -0.9998630881309509
      ],
      "type": "VEC3"
    },
    {
      "bufferView": 1,
      "byteOffset": 524256,
      "componentType": 5126,
      "count": 65533,
      "max": [
        0.9941149950027466,
        0.9964380264282227
      ],
      "min": [
        0.0033599999733269215,
        0.003063000040128827
      ],
      "type": "VEC2"
    },
    {
      "bufferView": 0,
      "byteOffset": 1359432,
      "componentType": 5125,
      "count": 316587,
      "type": "SCALAR"
    },
    {
      "bufferView": 2,
      "byteOffset": 3145560,
      "componentType": 5126,
      "count": 20459,
      "max": [
        3.225800037384033,
        5.537405967712402,
        12.833505630493164
      ],
      "min": [
        -3.430864095687866,
        1.2229470014572144,
        8.112520217895508
      ],
      "type": "VEC3"
    },
    {
      "bufferView": 2,
      "byteOffset": 3391068,
      "componentType": 5126,
      "count": 20459,
      "max": [
        0.9899312853813171,
        0.9018449783325195,
        0.9646531939506531
      ],
      "min": [
        -0.9620634317398071,
        -0.999994158744812,
        -0.9999464750289917
      ],
      "type": "VEC3"
    },
    {
      "bufferView": 1,
      "byteOffset": 1048520,
      "componentType": 5126,
      "count": 20459,
      "max": [
        0.9940760135650635,
        0.9958919882774353
      ],
      "min": [
        0.0031270000617951155,
        0.024111999198794365
      ],
      "type": "VEC2"
    },
    {
      "bufferView": 0,
      "byteOffset": 2625780,
      "componentType": 5125,
      "count": 93555,
      "type": "SCALAR"
    }
  ],
  "asset": {
    "extras": {
      "author": "Jeffrey Tuhtan (https://sketchfab.com/jtuhtan)",
      "license": "CC-BY-4.0 (http://creativecommons.org/licenses/by/4.0/)",
      "source": "https://sketchfab.com/3d-models/bulgarian-snowman-4c11fa8a1659478fb7ad0c86c5f59947",
      "title": "Bulgarian Snowman"
    },
    "generator": "Sketchfab-12.68.0",
    "version": "2.0"
  },
  "bufferViews": [
    {
      "buffer": 0,
      "byteLength": 3000000,
      "name": "floatBufferViews",
      "target": 34963
    },
    {
      "buffer": 0,
      "byteLength": 1212192,
      "byteOffset": 3000000,
      "byteStride": 8,
      "name": "floatBufferViews",
      "target": 34962
    },
    {
      "buffer": 0,
      "byteLength": 3636576,
      "byteOffset": 4212192,
      "byteStride": 12,
      "name": "floatBufferViews",
      "target": 34962
    }
  ],
  "buffers": [
    {
      "byteLength": 7848768,
      "uri": "scene.bin"
    }
  ],
  "images": [
    {
      "uri": "textures/material_0_baseColor.jpeg"
    }
  ],
  "materials": [
    {
      "doubleSided": true,
      "name": "material_0",
      "pbrMetallicRoughness": {
        "baseColorTexture": {
          "index": 0
        },
        "metallicFactor": 0.0,
        "roughnessFactor": 0.6
      }
    }
  ],
  "meshes": [
    {
      "name": "Object_0",
      "primitives": [
        {
          "attributes": {
            "NORMAL": 1,
            "POSITION": 0,
            "TEXCOORD_0": 2
          },
          "indices": 3,
          "material": 0,
          "mode": 4
        }
      ]
    },
    {
      "name": "Object_1",
      "primitives": [
        {
          "attributes": {
            "NORMAL": 5,
            "POSITION": 4,
            "TEXCOORD_0": 6
          },
          "indices": 7,
          "material": 0,
          "mode": 4
        }
      ]
    },
    {
      "name": "Object_2",
      "primitives": [
        {
          "attributes": {
            "NORMAL": 9,
            "POSITION": 8,
            "TEXCOORD_0": 10
          },
          "indices": 11,
          "material": 0,
          "mode": 4
        }
      ]
    }
  ],
  "nodes": [
    {
      "children": [
        1
      ],
      "matrix": [
        1.0,
        0.0,
        0.0,
        0.0,
        0.0,
        -1.0,
        -3.834759027214593e-17,
        0.0,
        0.0,
        3.834759027214593e-17,
        -1.0,
        0.0,
        0.0,
        0.0,
        0.0,
        1.0
      ],
      "name": "Sketchfab_model"
    },
    {
      "children": [
        2,
        3,
        4
      ],
      "name": "model.obj.cleaner"
    },
    {
      "mesh": 0,
      "name": "Object_2"
    },
    {
      "mesh": 1,
      "name": "Object_3"
    },
    {
      "mesh": 2,
      "name": "Object_4"
    }
  ],
  "samplers": [
    {
      "magFilter": 9729,
      "minFilter": 9987,
      "wrapS": 10497,
      "wrapT": 10497
    }
  ],
  "scene": 0,
  "scenes": [
    {
      "name": "Sketchfab_Scene",
      "nodes": [
        0
      ]
    }
  ],
  "textures": [
    {
      "sampler": 0,
      "source": 0
    }
  ]
}
